# xmcd
#
# Track frame offsets:
#	150
#	18734
#	35236
#	51431
#	70207
#	88335
#	111430
#	129360
#	146638
#	163617
#	187743
#	213172
#
# Disc length: 3322 seconds
#
# Revision: 1
# Processed by: cddbd v1.4PL0 Copyright (c) Steve Scherf et al.
# Submitted via: audiograbber 1.81.03
#
DISCID=b30cf80c
DTITLE=Gamble Bros. - Record Store
DYEAR=1900
DGENRE=Blues
TTITLE0=Record Store
TTITLE1=Back To The Bottom
TTITLE2=Love Is Alive
TTITLE3=Share
TTITLE4=Tiki Bar
TTITLE5=Come On Sam
TTITLE6=One Stone
TTITLE7=Escape Alley
TTITLE8=Old New One
TTITLE9=Land Of Soul
TTITLE10=Little Criminals
TTITLE11=Cadillactopus
EXTD=
EXTT0=
EXTT1=
EXTT2=
EXTT3=
EXTT4=
EXTT5=
EXTT6=
EXTT7=
EXTT8=
EXTT9=
EXTT10=
EXTT11=
PLAYORDER=
